HIERARCHY
ROOT Hips
{
	OFFSET 0.000000 0.000000 0.000000
	CHANNELS 6 Xposition Yposition Zposition Zrotation Yrotation Xrotation 
	JOINT LHipJoint
	{
		OFFSET 0.000000 0.000000 0.000000
		CHANNELS 3 Zrotation Yrotation Xrotation
		JOINT LeftUpLeg
		{
			OFFSET 1.363060 -1.794630 0.839290
			CHANNELS 3 Zrotation Yrotation Xrotation
			JOINT LeftLeg
			{
				OFFSET 2.448110 -6.726130 0.000000
				CHANNELS 3 Zrotation Yrotation Xrotation
				JOINT LeftFoot
				{
					OFFSET 2.562200 -7.039590 0.000000
					CHANNELS 3 Zrotation Yrotation Xrotation
					JOINT LeftToeBase
					{
						OFFSET 0.157640 -0.433110 2.322550
						CHANNELS 3 Zrotation Yrotation Xrotation
						End Site
						{
							OFFSET 0.000000 0.000000 0.000000
						}
					}
				}
			}
		}
	}
	JOINT RHipJoint
	{
		OFFSET 0.000000 0.000000 0.000000
		CHANNELS 3 Zrotation Yrotation Xrotation
		JOINT RightUpLeg
		{
			OFFSET -1.305520 -1.794630 0.839290
			CHANNELS 3 Zrotation Yrotation Xrotation
			JOINT RightLeg
			{
				OFFSET -2.542530 -6.985550 0.000000
				CHANNELS 3 Zrotation Yrotation Xrotation
				JOINT RightFoot
				{
					OFFSET -2.568260 -7.056230 0.000000
					CHANNELS 3 Zrotation Yrotation Xrotation
					JOINT RightToeBase
					{
						OFFSET -0.164730 -0.452590 2.363150
						CHANNELS 3 Zrotation Yrotation Xrotation
						End Site
						{
							OFFSET 0.000000 0.000000 0.000000
						}
					}
				}
			}
		}
	}
	JOINT LowerBack
	{
		OFFSET 0.000000 0.000000 0.000000
		CHANNELS 3 Zrotation Yrotation Xrotation
		JOINT Spine
		{
			OFFSET 0.028270 2.035590 -0.193380
			CHANNELS 3 Zrotation Yrotation Xrotation
			JOINT Spine1
			{
				OFFSET 0.056720 2.048850 -0.042750
				CHANNELS 3 Zrotation Yrotation Xrotation
				JOINT Neck
				{
					OFFSET 0.000000 0.000000 0.000000
					CHANNELS 3 Zrotation Yrotation Xrotation
					JOINT Neck1
					{
						OFFSET -0.054170 1.746240 0.172020
						CHANNELS 3 Zrotation Yrotation Xrotation
						JOINT Head
						{
							OFFSET 0.104070 1.761360 -0.123970
							CHANNELS 3 Zrotation Yrotation Xrotation
							End Site
							{
								OFFSET 0.000000 0.000000 0.000000
							}
						}
					}
				}
				JOINT LeftShoulder
				{
					OFFSET 0.000000 0.000000 0.000000
					CHANNELS 3 Zrotation Yrotation Xrotation
					JOINT LeftArm
					{
						OFFSET 3.362410 1.200890 -0.311210
						CHANNELS 3 Zrotation Yrotation Xrotation
						JOINT LeftForeArm
						{
							OFFSET 4.983000 -0.000000 -0.000000
							CHANNELS 3 Zrotation Yrotation Xrotation
							JOINT LeftHand
							{
								OFFSET 3.483560 -0.000000 -0.000000
								CHANNELS 3 Zrotation Yrotation Xrotation
								JOINT LeftFingerBase
								{
									OFFSET 0.000000 0.000000 0.000000
									CHANNELS 3 Zrotation Yrotation Xrotation
									JOINT LeftHandIndex1
									{
										OFFSET 0.715260 -0.000000 -0.000000
										CHANNELS 3 Zrotation Yrotation Xrotation
										End Site
										{
											OFFSET 0.000000 0.000000 0.000000
										}
									}
								}
								JOINT LThumb
								{
									OFFSET 0.000000 0.000000 0.000000
									CHANNELS 3 Zrotation Yrotation Xrotation
									End Site
									{
										OFFSET 0.000000 0.000000 0.000000
									}
								}
							}
						}
					}
				}
				JOINT RightShoulder
				{
					OFFSET 0.000000 0.000000 0.000000
					CHANNELS 3 Zrotation Yrotation Xrotation
					JOINT RightArm
					{
						OFFSET -3.136600 1.374050 -0.404650
						CHANNELS 3 Zrotation Yrotation Xrotation
						JOINT RightForeArm
						{
							OFFSET -5.241900 -0.000000 -0.000000
							CHANNELS 3 Zrotation Yrotation Xrotation
							JOINT RightHand
							{
								OFFSET -3.444170 -0.000000 -0.000000
								CHANNELS 3 Zrotation Yrotation Xrotation
								JOINT RightFingerBase
								{
									OFFSET 0.000000 0.000000 0.000000
									CHANNELS 3 Zrotation Yrotation Xrotation
									JOINT RightHandIndex1
									{
										OFFSET -0.622530 -0.000000 -0.000000
										CHANNELS 3 Zrotation Yrotation Xrotation
										End Site
										{
											OFFSET 0.000000 0.000000 0.000000
										}
									}
								}
								JOINT RThumb
								{
									OFFSET 0.000000 0.000000 0.000000
									CHANNELS 3 Zrotation Yrotation Xrotation
									End Site
									{
										OFFSET 0.000000 0.000000 0.000000
									}
								}
							}
						}
					}
				}
			}
		}
	}
}
MOTION
Frames: 7
Frame Time: 0.008333
3.559142 17.772052 0.669317 -163.860082 -65.774927 -176.760514 -10.408035 0.895596 -3.671732 -13.949685 12.695058 -21.013400 -2.419397 0.458579 16.250768 0.607863 3.501104 -0.290202 0.550300 -0.000000 -34.501800 9.682526 0.451807 -0.503674 3.378650 2.693230 -30.289900 1.899838 -1.705831 23.638049 -0.031889 0.693281 6.214839 -0.162999 -0.000000 -48.091300 -0.179871 -1.908734 6.395507 -1.366904 -1.699632 -0.965104 -8.339039 -1.593883 1.008275 6.404596 1.550945 5.209983 -4.988376 -0.415148 2.956327 0.000000 0.000000 0.000000 -0.322066 -6.961707 1.247627 -34.360623 -52.164024 -5.431853 -0.905395 -38.943998 -0.070628 9.592389 -3.528120 -0.338782 -0.104824 0.473310 -0.000000 0.000000 0.000000 0.000000 0.000000 0.000000 0.000000 17.373215 -1.405136 0.009997 54.669497 12.559530 -4.483170 1.970038 39.728069 0.008153 1.057351 8.994332 0.082568 0.029822 -0.151625 0.000000 0.000000 0.000000 0.000000 0.000000 0.000000 0.000000 
3.459200 17.776446 0.674981 -163.899913 -65.787966 -176.743928 -10.420822 0.928764 -3.744675 -13.969714 12.757334 -20.534661 -2.411809 0.471623 16.195436 0.588753 3.390683 -0.095378 0.547300 -0.000001 -35.249700 9.613125 0.485326 -0.369282 3.484519 3.164344 -30.638520 1.987953 -1.602595 22.374577 0.046939 1.097520 6.535405 -0.073800 0.000000 -48.618000 -0.050123 -1.964373 6.385632 -1.333325 -1.761605 -0.973729 -8.311314 -1.658012 0.955522 6.448802 1.485893 5.204584 -4.985017 -0.415124 2.957983 0.000000 0.000000 0.000000 -0.065031 -6.990298 1.195851 -33.513648 -52.612386 -6.292820 -0.808610 -38.689891 -0.071355 9.464997 -3.494830 -0.332008 -0.098907 0.481152 -0.000000 0.000000 0.000000 0.000000 0.000000 0.000000 0.000000 17.376959 -1.484614 -0.019898 54.674408 12.625446 -4.348524 1.926853 40.527270 0.007915 1.037101 9.095796 0.082069 0.027961 -0.154765 0.000000 0.000000 0.000000 0.000000 0.000000 0.000000 0.000000 
3.358300 17.779739 0.680291 -163.940380 -65.820587 -176.715486 -10.433052 0.963139 -3.808979 -13.996222 12.795620 -20.069970 -2.403454 0.483903 16.143353 0.570663 3.285876 0.101237 0.544800 0.000000 -35.940300 9.543938 0.516902 -0.237619 3.604124 3.601117 -31.006788 2.075551 -1.499124 21.130523 0.123991 1.486783 6.884720 0.016300 0.000000 -49.050600 0.083197 -2.019526 6.368356 -1.298084 -1.823520 -0.982811 -8.282062 -1.722051 0.910653 6.486963 1.407772 5.197505 -4.982262 -0.415100 2.959019 0.000000 0.000000 0.000000 0.177815 -7.002820 1.142051 -32.759834 -53.023054 -7.103049 -0.719284 -38.444067 -0.071928 9.342725 -3.469591 -0.326032 -0.093271 0.488249 -0.000000 0.000000 0.000000 0.000000 0.000000 0.000000 0.000000 17.375108 -1.580071 -0.053042 54.694622 12.688633 -4.176915 1.886875 41.283306 0.007676 1.000647 9.213305 0.080270 0.026397 -0.157759 0.000000 0.000000 0.000000 0.000000 0.000000 0.000000 0.000000 
3.256606 17.782169 0.685150 -164.004593 -65.868929 -176.658403 -10.442656 0.999094 -3.867032 -14.037020 12.803565 -19.595555 -2.393252 0.494058 16.068305 0.555094 3.203518 0.320776 0.546501 0.000000 -36.621700 9.476241 0.548763 -0.109778 3.723506 4.012353 -31.387324 2.160382 -1.395746 19.910453 0.196066 1.842979 7.241007 0.102500 0.000000 -49.357400 0.210642 -2.073291 6.348423 -1.263981 -1.883849 -0.992726 -8.254016 -1.784531 0.868513 6.527943 1.337295 5.195063 -4.980339 -0.415125 2.961045 0.000000 0.000000 0.000000 0.404419 -7.009216 1.090226 -32.092979 -53.383784 -7.856723 -0.637998 -38.226246 -0.072456 9.237720 -3.448756 -0.321053 -0.088167 0.494647 -0.000000 0.000000 0.000000 0.000000 0.000000 0.000000 0.000000 17.378777 -1.669644 -0.087630 54.729752 12.714160 -4.011724 1.848316 42.030931 0.007441 0.979226 9.308654 0.079469 0.024763 -0.160411 0.000000 0.000000 0.000000 0.000000 0.000000 0.000000 0.000000 
3.153678 17.783666 0.689678 -164.057446 -65.941928 -176.590820 -10.453609 1.036265 -3.914080 -14.082861 12.796592 -19.165371 -2.383501 0.504943 16.020364 0.538431 3.109027 0.539802 0.546200 -0.000001 -37.224200 9.406315 0.577643 0.020989 3.862420 4.393854 -31.803906 2.245367 -1.290275 18.714430 0.262033 2.152670 7.584447 0.179200 -0.000001 -49.526700 0.347902 -2.126605 6.310828 -1.227027 -1.944844 -1.005044 -8.226454 -1.847673 0.836357 6.566147 1.248178 5.187695 -4.979739 -0.415185 2.961916 0.000000 0.000000 0.000000 0.605407 -7.001240 1.038784 -31.519646 -53.714719 -8.543092 -0.564792 -38.029119 -0.072939 9.147449 -3.438020 -0.317370 -0.083525 0.500452 -0.000000 0.000000 0.000000 0.000000 0.000000 0.000000 0.000000 17.384173 -1.782102 -0.123937 54.772773 12.741925 -3.808382 1.814235 42.726136 0.007224 0.947804 9.419333 0.077871 0.023430 -0.162836 0.000000 0.000000 0.000000 0.000000 0.000000 0.000000 0.000000 
3.049875 17.784502 0.693722 -164.123680 -66.035296 -176.496742 -10.463463 1.074812 -3.953616 -14.140457 12.768120 -18.751774 -2.373206 0.515295 15.972422 0.521972 3.017126 0.778371 0.547000 -0.000000 -37.822000 9.335699 0.606037 0.152713 4.005872 4.755745 -32.245399 2.328359 -1.183023 17.545829 0.320029 2.406281 7.894869 0.242500 0.000000 -49.571600 0.483593 -2.178757 6.262798 -1.190450 -2.004999 -1.019347 -8.201863 -1.909960 0.809576 6.609897 1.157317 5.180394 -4.980865 -0.415324 2.962815 0.000000 0.000000 0.000000 0.780678 -6.987606 0.990860 -31.030282 -54.005888 -9.159351 -0.499986 -37.868577 -0.073449 9.078653 -3.433143 -0.314885 -0.079504 0.505703 -0.000000 0.000000 0.000000 0.000000 0.000000 0.000000 0.000000 17.402729 -1.899708 -0.160222 54.823155 12.746161 -3.604058 1.783161 43.394414 0.007030 0.932270 9.514699 0.077472 0.022087 -0.164871 0.000000 0.000000 0.000000 0.000000 0.000000 0.000000 0.000000 
2.945021 17.784739 0.697264 -164.191554 -66.151817 -176.382232 -10.473562 1.114561 -3.985374 -14.205782 12.725376 -18.370038 -2.363303 0.526237 15.941240 0.504051 2.912340 1.029585 0.546100 0.000000 -38.419900 9.263167 0.633070 0.287346 4.158731 5.099491 -32.716126 2.410523 -1.072969 16.405198 0.370077 2.602222 8.156500 0.289800 0.000001 -49.519500 0.621709 -2.230092 6.201421 -1.153451 -2.064981 -1.035918 -8.180965 -1.972052 0.789714 6.659472 1.060402 5.171042 -4.983893 -0.415540 2.963279 0.000000 0.000000 0.000000 0.924588 -6.967424 0.947199 -30.621529 -54.264087 -9.699561 -0.443813 -37.746149 -0.073993 9.030135 -3.433085 -0.313495 -0.076100 0.510441 -0.000000 0.000000 0.000000 0.000000 0.000000 0.000000 0.000000 17.435820 -2.027637 -0.196045 54.880031 12.735747 -3.395874 1.755987 44.022337 0.006868 0.931171 9.602151 0.078272 0.020780 -0.166521 0.000000 0.000000 0.000000 0.000000 0.000000 0.000000 0.000000 
